<svg width="21" height="21" viewBox="0 0 21 21" fill="none" xmlns="http://www.w3.org/2000/svg">
<path d="M10.4999 16.3708L16.0522 19.4173L14.9918 12.9647L19.4837 8.39492L13.276 7.4535L10.4999 1.5827L7.72376 7.4535L1.51612 8.39492L6.00801 12.9647L4.94762 19.4173L10.4999 16.3708ZM5.65313 20.8179C4.91198 21.2246 3.9953 20.9272 3.60565 20.1537C3.4505 19.8456 3.39696 19.4928 3.45332 19.1498L4.37897 13.5171L0.457851 9.52802C-0.141749 8.91802 -0.154018 7.91622 0.430447 7.29043C0.663184 7.04123 0.96814 6.87906 1.2981 6.82902L6.71696 6.00722L9.14034 0.882407C9.51092 0.0987444 10.42 -0.223009 11.1709 0.163752C11.4699 0.317762 11.7119 0.570348 11.8595 0.882407L14.2828 6.00722L19.7017 6.82902C20.5303 6.95469 21.1045 7.75764 20.984 8.62246C20.9361 8.96684 20.7807 9.28511 20.542 9.52802L16.6208 13.5171L17.5465 19.1498C17.688 20.0112 17.1338 20.8292 16.3085 20.9769C15.9798 21.0357 15.6418 20.9799 15.3467 20.8179L10.4999 18.1585L5.65313 20.8179Z" fill="black"/>
</svg>
