<svg width="22" height="22" viewBox="0 0 22 22" fill="none" xmlns="http://www.w3.org/2000/svg">
<path fill-rule="evenodd" clip-rule="evenodd" d="M13.5119 1.08616C12.0313 -0.0287216 9.93831 -0.0287216 8.45771 1.08616L8.4577 1.08615L8.45416 1.08885L1.56562 6.34027C0.755168 6.92774 0.260374 7.84592 0.250041 8.83956L0.25 8.83956V8.84736V17.5618C0.25 19.9176 2.26651 21.75 4.6557 21.75H6.68101C7.70136 21.75 8.61075 21.0134 8.72522 19.9901C8.74627 19.9209 8.7576 19.8475 8.7576 19.7714V16.7047V16.7047C8.75759 16.3798 9.0496 16.0395 9.509 16.0356H12.5443C13.0074 16.0356 13.3032 16.3778 13.3032 16.7047V19.7807V19.7809C13.303 20.8922 14.2334 21.7262 15.3025 21.7498L15.319 21.75H17.3443C19.7335 21.75 21.75 19.9176 21.75 17.5618V8.83784H21.7501L21.7499 8.82701C21.7356 7.83543 21.2418 6.91969 20.4345 6.33086L13.5137 1.08749L13.5119 1.08616ZM7.2576 16.7047V19.5975C7.24435 19.6533 7.23734 19.7116 7.23734 19.7714C7.23734 19.993 7.03227 20.25 6.68101 20.25H4.6557C3.00692 20.25 1.75 19.0038 1.75 17.5618V8.85165C1.75631 8.35476 2.00492 7.87224 2.45083 7.55125L2.46736 7.539L9.36001 2.28444L9.36169 2.28318C10.3077 1.57206 11.6631 1.57227 12.6088 2.28383L12.6096 2.28444L19.5344 7.53084L19.5469 7.54009C19.992 7.86303 20.2412 8.34581 20.25 8.84377V17.5618C20.25 19.0038 18.9931 20.25 17.3443 20.25H15.3287C14.9941 20.2394 14.8031 19.9928 14.8032 19.7811V19.7809V16.7047C14.8032 15.464 13.7478 14.5356 12.5443 14.5356H9.50633V14.5356L9.5016 14.5356C8.30347 14.5432 7.25758 15.47 7.2576 16.7047V16.7047Z" fill="black"/>
</svg>
