<svg width="22" height="22" viewBox="0 0 22 22" fill="none" xmlns="http://www.w3.org/2000/svg">
<path fill-rule="evenodd" clip-rule="evenodd" d="M17.675 1.5H10C8.61929 1.5 7.5 2.61929 7.5 4V5H6V4C6 1.79086 7.79086 0 10 0H17.675C19.8841 0 21.675 1.79086 21.675 4V11.675C21.675 13.8841 19.8841 15.675 17.675 15.675H16.725V14.175H17.675C19.0557 14.175 20.175 13.0557 20.175 11.675V4C20.175 2.61929 19.0557 1.5 17.675 1.5ZM11.675 7.5H4C2.61929 7.5 1.5 8.61929 1.5 10V17.675C1.5 19.0557 2.61929 20.175 4 20.175H11.675C13.0557 20.175 14.175 19.0557 14.175 17.675V10C14.175 8.61929 13.0557 7.5 11.675 7.5ZM4 6C1.79086 6 0 7.79086 0 10V17.675C0 19.8841 1.79086 21.675 4 21.675H11.675C13.8841 21.675 15.675 19.8841 15.675 17.675V10C15.675 7.79086 13.8841 6 11.675 6H4ZM12.8435 10.1393C13.167 10.3981 13.2194 10.8701 12.9607 11.1935L8.01068 17.381C7.87741 17.5476 7.67951 17.6495 7.4665 17.6613C7.25349 17.6731 7.04554 17.5937 6.89469 17.4428L3.18219 13.7303C2.8893 13.4374 2.8893 12.9625 3.1822 12.6696C3.47509 12.3767 3.94996 12.3767 4.24286 12.6696L7.36284 15.7896L11.7894 10.2565C12.0481 9.93301 12.5201 9.88057 12.8435 10.1393Z" fill="black"/>
</svg>
