<svg width="23" height="23" viewBox="0 0 23 23" fill="none" xmlns="http://www.w3.org/2000/svg">
<path fill-rule="evenodd" clip-rule="evenodd" d="M22.1766 2.9305C22.6904 2.28071 22.5802 1.33737 21.9304 0.823505C21.2806 0.309638 20.3373 0.419828 19.8234 1.06962L9.92857 13.5818L7.17656 10.1019C6.66269 9.45209 5.71935 9.3419 5.06956 9.85576C4.41977 10.3696 4.30958 11.313 4.82344 11.9628L8.75202 16.9305C9.0365 17.2902 9.46994 17.5001 9.92857 17.5001C10.3872 17.5001 10.8206 17.2902 11.1051 16.9305L22.1766 2.9305ZM18 18V11.4011L20 8.90113V18C20 20.7614 17.7614 23 15 23H5C2.23858 23 0 20.7614 0 18V7.99996C0 5.23853 2.23858 2.99996 5 2.99996H14.9791L13.3791 4.99996H5C3.34315 4.99996 2 6.3431 2 7.99996V18C2 19.6568 3.34315 21 5 21H15C16.6569 21 18 19.6568 18 18Z" fill="black"/>
</svg>
